<?xml version="1.0" encoding="utf-8"?>
<!-- Generator: Adobe Illustrator 23.0.1, SVG Export Plug-In . SVG Version: 6.00 Build 0)  -->
<svg version="1.1" id="LOGO" xmlns="http://www.w3.org/2000/svg" xmlns:xlink="http://www.w3.org/1999/xlink" x="0px" y="0px"
	 viewBox="0 0 800 305" style="enable-background:new 0 0 800 305;" xml:space="preserve">
<style type="text/css">
	.st0{fill:#58595B;}
	.st1{fill:#FF4400;}
	.st2{enable-background:new    ;}
</style>
<g>
	<g>
		<path class="st0" d="M197.2,104.6c-13.2,0-15.2,9.1-15.6,13.5v50.2c0.3,9-6.9,32.8-37.9,32.8c-35.8,0-40.4-26.6-40.4-36.2
			c0-9.6,0-49,0-49H89.7c-2.1,7.3-3.2,14.9-3.2,22.9c0,45.9,37.2,83.1,83.1,83.1c16.6,0,32.1-4.9,45.1-13.3V119
			C214.6,119,212.8,104.6,197.2,104.6z"/>
		<path class="st1" d="M169.6,55.6c-15.9,0-30.6,4.5-43.2,12.2v95.3c0,0,1.8,14.4,17.4,14.4c13.2,0,15.2-9.1,15.6-13.5v-50.2
			c0-10.1,6.9-33.5,37.9-33.5c35.8,0,40.4,27.3,40.4,37c0,9.6,0,49,0,49H248c3-8.6,4.7-17.9,4.7-27.5
			C252.7,92.9,215.5,55.6,169.6,55.6z"/>
		<rect x="52.6" y="85.3" class="st1" width="24.6" height="21.6"/>
		<rect x="85.4" y="58.5" class="st1" width="21.4" height="18.8"/>
		<rect x="56" y="60" class="st1" width="17.8" height="15.7"/>
		<rect x="50" y="41.1" class="st1" width="11.9" height="10.4"/>
		<rect x="30.7" y="42.7" class="st1" width="8.3" height="7.3"/>
		<rect x="34.8" y="62.7" class="st1" width="11.9" height="10.4"/>
	</g>
</g>
<g class="st2">
	<path class="st1" d="M392,75.2v129.6h-25.9l-50.7-87.5c0.1,2.2,0.1,3.7,0.2,4.4c0.3,2.2,0.4,4.1,0.4,5.6v77.6h-23.6V75.2H325
		l44.1,76.4c-0.4-3.8-0.6-6.7-0.6-8.6V75.2H392z"/>
	<path class="st1" d="M540.4,75.2v80.7c0,13-1.5,22.7-4.5,29.1c-3,6.4-8.5,11.6-16.5,15.7c-8,4.1-18.2,6.1-30.7,6.1
		c-12.5,0-22.4-1.8-29.8-5.5c-7.4-3.7-12.9-8.9-16.6-15.7c-3.7-6.8-5.5-16.7-5.5-29.7V75.2h32.9v80.7c0,7,0.6,12.1,1.8,15.4
		c1.2,3.3,3.5,5.9,7,7.8c3.5,1.9,7.8,2.9,13,2.9c5.7,0,10.3-0.9,13.9-2.8c3.6-1.9,5.9-4.4,7.1-7.5c1.2-3.1,1.8-8.4,1.8-15.7V75.2
		H540.4z"/>
	<path class="st1" d="M615.4,179.1H667v25.6h-82.3V75.2h30.8V179.1z"/>
	<path class="st1" d="M733.1,75.2v129.6h-30.3V75.2H733.1z"/>
</g>
<g>
	<g>
		<path class="st1" d="M331,115c7.7,0,7.7-12,0-12C323.3,103,323.3,115,331,115L331,115z"/>
	</g>
</g>
</svg>
