<?xml version="1.0" encoding="utf-8"?>
<!-- Generator: Adobe Illustrator 23.0.1, SVG Export Plug-In . SVG Version: 6.00 Build 0)  -->
<svg version="1.1" id="LOGO" xmlns="http://www.w3.org/2000/svg" xmlns:xlink="http://www.w3.org/1999/xlink" x="0px" y="0px"
	 viewBox="0 0 800 305" style="enable-background:new 0 0 800 305;" xml:space="preserve">
<style type="text/css">
	.st0{fill:#58595B;}
	.st1{fill:#FF4400;}
	.st2{font-family:'FranklinGothic-Demi';}
	.st3{font-size:194.4334px;}
	.st4{letter-spacing:20;}
</style>
<g>
	<g>
		<path class="st0" d="M197.2,104.6c-13.2,0-15.2,9.1-15.6,13.5v50.2c0.3,9-6.9,32.8-37.9,32.8c-35.8,0-40.4-26.6-40.4-36.2
			c0-9.6,0-49,0-49H89.7c-2.1,7.3-3.2,14.9-3.2,22.9c0,45.9,37.2,83.1,83.1,83.1c16.6,0,32.1-4.9,45.1-13.3V119
			C214.6,119,212.8,104.6,197.2,104.6z"/>
		<path class="st1" d="M169.6,55.6c-15.9,0-30.6,4.5-43.2,12.2v95.3c0,0,1.8,14.4,17.4,14.4c13.2,0,15.2-9.1,15.6-13.5v-50.2
			c0-10.1,6.9-33.5,37.9-33.5c35.8,0,40.4,27.3,40.4,37c0,9.6,0,49,0,49H248c3-8.6,4.7-17.9,4.7-27.5
			C252.7,92.9,215.5,55.6,169.6,55.6z"/>
		<rect x="52.6" y="85.3" class="st1" width="24.6" height="21.6"/>
		<rect x="85.4" y="58.5" class="st1" width="21.4" height="18.8"/>
		<rect x="56" y="60" class="st1" width="17.8" height="15.7"/>
		<rect x="50" y="41.1" class="st1" width="11.9" height="10.4"/>
		<rect x="30.7" y="42.7" class="st1" width="8.3" height="7.3"/>
		<rect x="34.8" y="62.7" class="st1" width="11.9" height="10.4"/>
	</g>
</g>
<text transform="matrix(1 0 0 1 279.2736 204.7488)" class="st1 st2 st3 st4">NULI</text>
</svg>
