<?xml version="1.0" standalone="no"?>
<!DOCTYPE svg PUBLIC "-//W3C//DTD SVG 20010904//EN"
 "http://www.w3.org/TR/2001/REC-SVG-20010904/DTD/svg10.dtd">
<svg version="1.0" xmlns="http://www.w3.org/2000/svg"
 width="850.000000pt" height="181.000000pt" viewBox="0 0 850.000000 181.000000"
 preserveAspectRatio="xMidYMid meet">

<g transform="translate(0.000000,181.000000) scale(0.100000,-0.100000)"
fill="#000000" stroke="none">
<path d="M2711 1391 c-18 -5 -43 -19 -55 -30 -20 -21 -21 -32 -24 -261 l-3
-240 55 0 56 0 0 213 c0 152 3 216 12 225 20 20 86 15 98 -7 6 -12 10 -103 10
-225 l0 -206 56 0 56 0 -4 233 c-3 127 -8 240 -13 250 -4 10 -21 25 -37 33
-36 18 -158 27 -207 15z"/>
<path d="M3160 1181 c0 -123 4 -231 10 -248 14 -40 61 -65 134 -70 76 -6 135
9 167 43 24 25 24 27 27 260 l3 234 -55 0 -56 0 0 -206 c0 -122 -4 -213 -10
-225 -12 -22 -78 -27 -98 -7 -9 9 -12 73 -12 225 l0 213 -55 0 -55 0 0 -219z"/>
<path d="M3690 1176 c0 -124 4 -236 10 -250 13 -36 50 -56 113 -63 79 -8 145
4 173 32 19 19 24 35 24 75 l0 50 -50 0 c-48 0 -50 -1 -50 -29 0 -31 -14 -41
-59 -41 -49 0 -51 8 -51 237 l0 213 -55 0 -55 0 0 -224z"/>
<path d="M4160 1130 l0 -270 55 0 55 0 0 270 0 270 -55 0 -55 0 0 -270z"/>
<path d="M1775 1156 c-17 -7 -40 -26 -50 -42 -19 -27 -20 -53 -25 -344 -5
-301 -6 -317 -28 -361 -36 -74 -87 -125 -160 -161 -65 -32 -70 -33 -197 -33
-125 0 -133 1 -195 31 -116 56 -178 141 -199 274 -6 36 -11 172 -11 303 l0
237 -64 0 c-73 0 -69 5 -86 -100 -46 -293 79 -605 312 -783 91 -68 171 -109
285 -143 75 -23 107 -27 218 -27 154 0 243 20 373 83 l82 41 0 452 c0 450 0
453 -22 497 -33 63 -66 83 -141 87 -38 2 -74 -2 -92 -11z"/>
<path d="M2620 535 c0 -104 2 -125 15 -125 12 0 15 13 15 55 l0 55 36 0 c33 0
37 -3 59 -55 14 -31 31 -55 40 -55 15 0 14 4 -18 79 -13 31 -13 34 9 57 31 30
30 59 -1 89 -21 22 -33 25 -90 25 l-65 0 0 -125z m138 83 c33 -33 -7 -78 -70
-78 l-38 0 0 45 0 45 48 0 c26 0 53 -5 60 -12z"/>
<path d="M2923 535 c-28 -86 -37 -125 -29 -125 7 0 17 15 22 33 9 30 13 32 60
35 50 3 51 2 60 -30 5 -18 17 -34 27 -36 15 -3 15 2 -4 55 -11 32 -29 88 -40
125 -31 104 -46 95 -96 -57z m83 1 c6 -25 4 -26 -31 -26 -28 0 -36 4 -32 14 3
8 11 33 18 57 l13 42 13 -30 c6 -17 15 -42 19 -57z"/>
<path d="M3160 535 c0 -104 2 -125 15 -125 13 0 15 21 15 125 0 104 -2 125
-15 125 -13 0 -15 -21 -15 -125z"/>
<path d="M3317 642 c-10 -10 -17 -33 -17 -50 0 -36 24 -56 80 -67 35 -7 70
-30 70 -47 0 -17 -41 -48 -64 -48 -14 0 -38 11 -54 25 -34 29 -42 31 -42 11 0
-28 50 -56 101 -56 39 0 51 4 68 26 40 51 16 97 -63 117 -56 15 -77 37 -60 65
17 26 62 27 89 2 33 -31 52 -21 25 13 -18 23 -29 27 -69 27 -34 0 -53 -5 -64
-18z"/>
<path d="M3580 535 c0 -104 2 -125 15 -125 13 0 15 21 15 125 0 104 -2 125
-15 125 -13 0 -15 -21 -15 -125z"/>
<path d="M3730 535 c0 -107 2 -125 16 -125 13 0 15 15 12 104 -2 57 0 102 3
100 4 -2 33 -49 65 -104 33 -55 65 -100 72 -100 9 0 12 32 12 125 0 149 -18
171 -22 28 l-3 -97 -58 97 c-42 70 -63 97 -77 97 -19 0 -20 -8 -20 -125z"/>
<path d="M4067 649 c-63 -37 -62 -194 2 -229 25 -13 77 -13 101 0 13 7 21 7
25 0 15 -25 25 -5 25 50 l0 60 -50 0 c-27 0 -50 -4 -50 -10 0 -5 16 -10 36
-10 32 0 35 -2 28 -22 -17 -57 -62 -74 -105 -39 -21 17 -24 28 -24 86 0 58 3
69 24 86 31 26 57 24 87 -6 43 -43 60 -29 23 19 -16 21 -29 26 -62 26 -23 0
-50 -5 -60 -11z"/>
<path d="M4480 535 l0 -125 75 0 c60 0 75 3 75 15 0 12 -13 15 -60 15 l-60 0
0 110 c0 91 -3 110 -15 110 -13 0 -15 -21 -15 -125z"/>
<path d="M4720 535 c0 -104 2 -125 15 -125 13 0 15 21 15 125 0 104 -2 125
-15 125 -13 0 -15 -21 -15 -125z"/>
<path d="M4883 536 c29 -89 46 -126 57 -126 11 0 28 37 57 125 26 78 37 125
30 125 -7 0 -27 -45 -46 -100 -19 -55 -36 -98 -37 -97 -2 1 -18 45 -36 97 -22
62 -40 96 -50 98 -14 3 -9 -20 25 -122z"/>
<path d="M5130 535 c0 -104 2 -125 15 -125 13 0 15 21 15 125 0 104 -2 125
-15 125 -13 0 -15 -21 -15 -125z"/>
<path d="M5280 535 c0 -107 2 -125 16 -125 13 0 15 15 12 104 -2 57 0 102 3
100 4 -2 33 -49 65 -104 33 -55 65 -100 72 -100 9 0 12 32 12 125 0 149 -18
171 -22 28 l-3 -97 -58 97 c-42 70 -63 97 -77 97 -19 0 -20 -8 -20 -125z"/>
<path d="M5617 649 c-63 -37 -62 -194 2 -229 25 -13 77 -13 101 0 13 7 21 7
25 0 15 -25 25 -5 25 50 l0 60 -50 0 c-27 0 -50 -4 -50 -10 0 -5 16 -10 36
-10 32 0 35 -2 28 -22 -17 -57 -62 -74 -105 -39 -21 17 -24 28 -24 86 0 58 3
69 24 86 31 26 57 24 87 -6 43 -43 60 -29 23 19 -16 21 -29 26 -62 26 -23 0
-50 -5 -60 -11z"/>
<path d="M6037 642 c-10 -10 -17 -33 -17 -50 0 -36 24 -56 80 -67 35 -7 70
-30 70 -47 0 -17 -41 -48 -64 -48 -14 0 -38 11 -54 25 -34 29 -42 31 -42 11 0
-28 50 -56 101 -56 39 0 51 4 68 26 40 51 16 97 -63 117 -56 15 -77 37 -60 65
17 26 62 27 89 2 33 -31 52 -21 25 13 -18 23 -29 27 -69 27 -34 0 -53 -5 -64
-18z"/>
<path d="M6280 645 c0 -10 11 -15 35 -15 l35 0 0 -110 c0 -91 3 -110 15 -110
12 0 15 19 15 109 l0 110 32 3 c17 2 33 9 36 16 3 9 -18 12 -82 12 -70 0 -86
-3 -86 -15z"/>
<path d="M6553 535 c-28 -86 -37 -125 -29 -125 7 0 17 15 22 33 9 30 13 32 60
35 50 3 51 2 60 -30 5 -18 17 -34 27 -36 15 -3 15 2 -4 55 -11 32 -29 88 -40
125 -31 104 -46 95 -96 -57z m83 1 c6 -25 4 -26 -31 -26 -28 0 -36 4 -32 14 3
8 11 33 18 57 l13 42 13 -30 c6 -17 15 -42 19 -57z"/>
<path d="M6790 535 c0 -107 2 -125 16 -125 13 0 15 15 12 104 -2 57 0 102 3
100 4 -2 33 -49 65 -104 33 -55 65 -100 72 -100 9 0 12 32 12 125 0 149 -18
171 -22 28 l-3 -97 -58 97 c-42 70 -63 97 -77 97 -19 0 -20 -8 -20 -125z"/>
<path d="M7090 535 l0 -125 55 0 c69 0 108 19 126 61 27 67 8 149 -42 174 -15
8 -53 15 -84 15 l-55 0 0 -125z m130 85 c30 -16 45 -79 30 -124 -14 -43 -35
-56 -89 -56 l-41 0 0 95 0 95 41 0 c22 0 49 -5 59 -10z"/>
<path d="M7403 535 c-28 -86 -37 -125 -29 -125 7 0 17 15 22 33 9 30 13 32 60
35 50 3 51 2 60 -30 5 -18 17 -34 27 -36 15 -3 15 2 -4 55 -11 32 -29 88 -40
125 -31 104 -46 95 -96 -57z m83 1 c6 -25 4 -26 -31 -26 -28 0 -36 4 -32 14 3
8 11 33 18 57 l13 42 13 -30 c6 -17 15 -42 19 -57z"/>
<path d="M7650 535 c0 -104 2 -125 15 -125 12 0 15 13 15 55 l0 55 36 0 c33 0
37 -3 59 -55 14 -31 31 -55 40 -55 15 0 14 4 -18 79 -13 31 -13 34 9 57 31 30
30 59 -1 89 -21 22 -33 25 -90 25 l-65 0 0 -125z m138 83 c33 -33 -7 -78 -70
-78 l-38 0 0 45 0 45 48 0 c26 0 53 -5 60 -12z"/>
<path d="M7940 535 l0 -125 55 0 c69 0 108 19 126 61 27 67 8 149 -42 174 -15
8 -53 15 -84 15 l-55 0 0 -125z m130 85 c30 -16 45 -79 30 -124 -14 -43 -35
-56 -89 -56 l-41 0 0 95 0 95 41 0 c22 0 49 -5 59 -10z"/>
<path d="M8237 642 c-10 -10 -17 -33 -17 -50 0 -36 24 -56 80 -67 35 -7 70
-30 70 -47 0 -17 -41 -48 -64 -48 -14 0 -38 11 -54 25 -34 29 -42 31 -42 11 0
-28 50 -56 101 -56 39 0 51 4 68 26 40 51 16 97 -63 117 -56 15 -77 37 -60 65
17 26 62 27 89 2 33 -31 52 -21 25 13 -18 23 -29 27 -69 27 -34 0 -53 -5 -64
-18z"/>
</g>
</svg>
